<svg xmlns="http://www.w3.org/2000/svg" viewBox="0 0 64 64">
  <!-- Revenge of the Evil Aliens — classic "grey alien" head, recoloured menacing green -->
  <rect width="64" height="64" rx="10" fill="#05030a"/>
  <!-- head -->
  <path d="M32 8 C18 8 11 18 11 30 C11 42 20 52 32 58 C44 52 53 42 53 30 C53 18 46 8 32 8 Z"
        fill="#7CFC00"/>
  <!-- eyes -->
  <path d="M24 30 C20 30 16 33 16 38 C16 43 21 45 24 41 C26 38 27 30 24 30 Z" fill="#05030a"/>
  <path d="M40 30 C44 30 48 33 48 38 C48 43 43 45 40 41 C38 38 37 30 40 30 Z" fill="#05030a"/>
  <!-- eye glints -->
  <circle cx="20" cy="35" r="1.6" fill="#9be15d"/>
  <circle cx="44" cy="35" r="1.6" fill="#9be15d"/>
  <!-- mouth -->
  <path d="M28 49 Q32 52 36 49" stroke="#05030a" stroke-width="2" fill="none" stroke-linecap="round"/>
</svg>
